<svg width="23" height="16" viewBox="0 0 23 16" fill="none" xmlns="http://www.w3.org/2000/svg">
<path d="M22.3811 2.50362C22.1178 1.52462 21.3459 0.752902 20.3671 0.489283C18.5788 -3.40521e-08 11.4257 0 11.4257 0C11.4257 0 4.27289 0 2.48465 0.470751C1.52462 0.734085 0.733942 1.5248 0.470608 2.50362C0 4.29171 0 8.00006 0 8.00006C0 8.00006 0 11.727 0.470608 13.4964C0.734192 14.4753 1.5058 15.247 2.4848 15.5106C4.29171 16 11.426 16 11.426 16C11.426 16 18.5788 16 20.3671 15.5293C21.346 15.2658 22.1178 14.4941 22.3814 13.5152C22.8519 11.727 22.8519 8.01884 22.8519 8.01884C22.8519 8.01884 22.8707 4.29168 22.3811 2.50362ZM9.1483 11.4259V4.57411L15.0965 7.99998L9.1483 11.4259Z" fill="url(#paint0_linear_1_38640)"/>
<defs>
<linearGradient id="paint0_linear_1_38640" x1="11.426" y1="0" x2="11.426" y2="16" gradientUnits="userSpaceOnUse">
<stop stop-color="#FF7373"/>
<stop offset="0.365" stop-color="#FF6F6F"/>
<stop offset="1" stop-color="#EC3C3C"/>
</linearGradient>
</defs>
</svg>
