<svg width="23" height="16" viewBox="0 0 23 16" fill="none" xmlns="http://www.w3.org/2000/svg">
<path d="M22.3813 2.50363C22.118 1.52463 21.3461 0.752908 20.3672 0.489286C18.579 -3.40524e-08 11.4258 0 11.4258 0C11.4258 0 4.27293 0 2.48467 0.470755C1.52463 0.73409 0.733947 1.52481 0.470612 2.50363C0 4.29175 0 8.00012 0 8.00012C0 8.00012 0 11.7271 0.470612 13.4965C0.734197 14.4754 1.50582 15.2471 2.48482 15.5107C4.29174 16.0002 11.4261 16.0002 11.4261 16.0002C11.4261 16.0002 18.579 16.0002 20.3672 15.5294C21.3462 15.2659 22.118 14.4942 22.3816 13.5153C22.852 11.7271 22.852 8.0189 22.852 8.0189C22.852 8.0189 22.8708 4.29171 22.3813 2.50363ZM9.14837 11.426V4.57415L15.0966 8.00005L9.14837 11.426Z" fill="url(#paint0_linear_1_38992)"/>
<defs>
<linearGradient id="paint0_linear_1_38992" x1="11.4261" y1="0" x2="11.4261" y2="16.0002" gradientUnits="userSpaceOnUse">
<stop stop-color="#FF7373"/>
<stop offset="0.365" stop-color="#FF6F6F"/>
<stop offset="1" stop-color="#EC3C3C"/>
</linearGradient>
</defs>
</svg>
