<svg width="17" height="15" viewBox="0 0 17 15" fill="none" xmlns="http://www.w3.org/2000/svg">
<path d="M7.19124 0.719761L0.193001 12.8402C0.0665877 13.0591 2.33964e-05 13.3074 6.16648e-09 13.5601C-2.3384e-05 13.8129 0.066495 14.0612 0.192867 14.2801C0.31924 14.499 0.501013 14.6808 0.719912 14.8072C0.938812 14.9335 1.18712 15.0001 1.43988 15H15.4352C15.688 15.0001 15.9363 14.9335 16.1552 14.8072C16.3741 14.6808 16.5559 14.499 16.6823 14.2801C16.8086 14.0612 16.8751 13.8129 16.8751 13.5601C16.8751 13.3074 16.8085 13.0591 16.6821 12.8402L9.68463 0.719761C9.55828 0.500925 9.37655 0.319203 9.15771 0.192859C8.93887 0.0665146 8.69063 0 8.43794 0C8.18525 0 7.937 0.0665146 7.71816 0.192859C7.49932 0.319203 7.31759 0.500925 7.19124 0.719761Z" fill="#EE404C"/>
</svg>
