<svg width="38" height="38" viewBox="0 0 38 38" fill="none" xmlns="http://www.w3.org/2000/svg">
<rect width="37.9993" height="37.9993" rx="18.5192" fill="#4F5D80"/>
<path d="M11.5859 24.9622C11.1852 25.3629 11.1852 26.0125 11.5859 26.4131C11.9865 26.8138 12.6361 26.8138 13.0368 26.4131L11.5859 24.9622ZM26.7139 12.311C26.7139 11.7444 26.2546 11.2851 25.688 11.2851L16.4545 11.2851C15.8879 11.2851 15.4286 11.7444 15.4286 12.311C15.4286 12.8776 15.8879 13.3369 16.4545 13.3369L24.6621 13.3369L24.6621 21.5445C24.6621 22.1111 25.1214 22.5704 25.688 22.5704C26.2546 22.5704 26.7139 22.1111 26.7139 21.5445L26.7139 12.311ZM13.0368 26.4131L26.4135 13.0365L24.9625 11.5855L11.5859 24.9622L13.0368 26.4131Z" fill="white"/>
</svg>
