<svg width="47" height="33" viewBox="0 0 47 33" fill="none" xmlns="http://www.w3.org/2000/svg">
<path d="M46.0316 5.14921C45.49 3.13571 43.9024 1.5485 41.8892 1.00631C38.2113 -7.00354e-08 23.4994 0 23.4994 0C23.4994 0 8.78811 0 5.11022 0.9682C3.13571 1.5098 1.50951 3.13607 0.967906 5.14921C0 8.82682 0 16.4538 0 16.4538C0 16.4538 0 24.1191 0.967906 27.7583C1.51002 29.7715 3.097 31.3587 5.11051 31.9009C8.82682 32.9075 23.5 32.9075 23.5 32.9075C23.5 32.9075 38.2113 32.9075 41.8892 31.9393C43.9027 31.3974 45.49 29.8102 46.0321 27.797C46.9997 24.1191 46.9997 16.4924 46.9997 16.4924C46.9997 16.4924 47.0384 8.82674 46.0316 5.14921ZM18.8154 23.4998V9.40763L31.0491 16.4537L18.8154 23.4998Z" fill="url(#paint0_linear_1_27501)"/>
<defs>
<linearGradient id="paint0_linear_1_27501" x1="23.4999" y1="0" x2="23.4999" y2="32.9075" gradientUnits="userSpaceOnUse">
<stop stop-color="#FF7373"/>
<stop offset="0.365" stop-color="#FF6F6F"/>
<stop offset="1" stop-color="#EC3C3C"/>
</linearGradient>
</defs>
</svg>
