<svg width="26" height="18" viewBox="0 0 26 18" fill="none" xmlns="http://www.w3.org/2000/svg">
<path d="M25.1789 2.81658C24.8826 1.71521 24.0142 0.847018 22.913 0.550445C20.9013 -3.83088e-08 12.854 0 12.854 0C12.854 0 4.80703 0 2.79525 0.529597C1.71521 0.825849 0.825688 1.71541 0.529437 2.81658C0 4.8282 0 9.0001 0 9.0001C0 9.0001 0 13.193 0.529437 15.1835C0.825969 16.2848 1.69404 17.153 2.79541 17.4495C4.8282 18.0001 12.8543 18.0001 12.8543 18.0001C12.8543 18.0001 20.9013 18.0001 22.913 17.4705C24.0144 17.1741 24.8826 16.3059 25.1792 15.2047C25.7084 13.1929 25.7084 9.02123 25.7084 9.02123C25.7084 9.02123 25.7296 4.82816 25.1789 2.81658ZM10.2919 12.8542V5.1459L16.9836 9.00002L10.2919 12.8542Z" fill="url(#paint0_linear_1_1771)"/>
<defs>
<linearGradient id="paint0_linear_1_1771" x1="12.8543" y1="0" x2="12.8543" y2="18.0001" gradientUnits="userSpaceOnUse">
<stop stop-color="#FF7373"/>
<stop offset="0.365" stop-color="#FF6F6F"/>
<stop offset="1" stop-color="#EC3C3C"/>
</linearGradient>
</defs>
</svg>
