<svg width="38" height="38" viewBox="0 0 38 38" fill="none" xmlns="http://www.w3.org/2000/svg">
<rect width="37.9993" height="37.9993" rx="18.5192" fill="#4F5D80"/>
<path d="M11.5859 24.9625C11.1852 25.3631 11.1852 26.0127 11.5859 26.4134C11.9865 26.814 12.6361 26.814 13.0368 26.4134L11.5859 24.9625ZM26.7139 12.3112C26.7139 11.7446 26.2546 11.2853 25.688 11.2853L16.4545 11.2853C15.8879 11.2853 15.4286 11.7446 15.4286 12.3113C15.4286 12.8779 15.8879 13.3372 16.4545 13.3372L24.6621 13.3372L24.6621 21.5447C24.6621 22.1114 25.1214 22.5707 25.688 22.5707C26.2546 22.5707 26.7139 22.1114 26.7139 21.5447L26.7139 12.3112ZM13.0368 26.4134L26.4135 13.0367L24.9625 11.5858L11.5859 24.9625L13.0368 26.4134Z" fill="white"/>
</svg>
