<svg width="38" height="38" viewBox="0 0 38 38" fill="none" xmlns="http://www.w3.org/2000/svg">
<rect width="38.0003" height="38.0003" rx="18.5192" fill="#4F5D80"/>
<path d="M11.5862 24.9629C11.1855 25.3635 11.1855 26.0132 11.5862 26.4138C11.9868 26.8145 12.6365 26.8145 13.0371 26.4138L11.5862 24.9629ZM26.7146 12.3113C26.7146 11.7447 26.2553 11.2854 25.6887 11.2854L16.4549 11.2854C15.8883 11.2854 15.429 11.7447 15.429 12.3113C15.429 12.878 15.8883 13.3373 16.4549 13.3373L24.6627 13.3373L24.6627 21.5451C24.6627 22.1117 25.122 22.571 25.6887 22.571C26.2553 22.571 26.7146 22.1117 26.7146 21.5451L26.7146 12.3113ZM13.0371 26.4138L26.4141 13.0368L24.9632 11.5859L11.5862 24.9629L13.0371 26.4138Z" fill="white"/>
</svg>
