<svg width="23" height="16" viewBox="0 0 23 16" fill="none" xmlns="http://www.w3.org/2000/svg">
<path d="M22.3806 2.50356C22.1173 1.52459 21.3454 0.752884 20.3666 0.489271C18.5784 -3.40513e-08 11.4254 0 11.4254 0C11.4254 0 4.2728 0 2.4846 0.47074C1.52459 0.734068 0.733925 1.52476 0.470597 2.50356C0 4.29161 0 7.99987 0 7.99987C0 7.99987 0 11.7268 0.470597 13.4961C0.734175 14.4749 1.50577 15.2467 2.48474 15.5103C4.29161 15.9997 11.4257 15.9997 11.4257 15.9997C11.4257 15.9997 18.5784 15.9997 20.3666 15.5289C21.3456 15.2655 22.1173 14.4938 22.3809 13.5149C22.8513 11.7267 22.8513 8.01865 22.8513 8.01865C22.8513 8.01865 22.8701 4.29158 22.3806 2.50356ZM9.14808 11.4256V4.57401L15.0961 7.9998L9.14808 11.4256Z" fill="url(#paint0_linear_1_38102)"/>
<defs>
<linearGradient id="paint0_linear_1_38102" x1="11.4257" y1="0" x2="11.4257" y2="15.9997" gradientUnits="userSpaceOnUse">
<stop stop-color="#FF7373"/>
<stop offset="0.365" stop-color="#FF6F6F"/>
<stop offset="1" stop-color="#EC3C3C"/>
</linearGradient>
</defs>
</svg>
