<svg width="38" height="38" viewBox="0 0 38 38" fill="none" xmlns="http://www.w3.org/2000/svg">
<rect width="37.9993" height="37.9993" rx="18.5192" fill="#4F5D80"/>
<path d="M11.5859 24.9625C11.1852 25.3632 11.1852 26.0128 11.5859 26.4134C11.9865 26.8141 12.6361 26.8141 13.0368 26.4134L11.5859 24.9625ZM26.7139 12.3113C26.7139 11.7447 26.2546 11.2854 25.688 11.2854L16.4545 11.2854C15.8879 11.2854 15.4286 11.7447 15.4286 12.3113C15.4286 12.8779 15.8879 13.3373 16.4545 13.3373L24.6621 13.3373L24.6621 21.5448C24.6621 22.1114 25.1214 22.5708 25.688 22.5708C26.2546 22.5708 26.7139 22.1114 26.7139 21.5448L26.7139 12.3113ZM13.0368 26.4134L26.4135 13.0368L24.9625 11.5859L11.5859 24.9625L13.0368 26.4134Z" fill="white"/>
</svg>
